<?xml version="1.0" encoding="UTF-8"?>
<svg xmlns="http://www.w3.org/2000/svg" width="775.8" height="560.38" viewBox="0 0 775.8 560.38">
  <g style="isolation: isolate;">
    <g id="a" data-name="artwork">
      <g>
        <g>
          <path d="M93.49,444.86v2.77c0,.44.16.81.47,1.12.31.31.69.46,1.13.46h17.98c.44,0,.82.16,1.13.47.31.31.46.69.46,1.13v9.32c0,.44-.16.82-.46,1.13-.31.31-.69.47-1.13.47h-17.98c-.44,0-.82.16-1.13.47-.31.31-.47.69-.47,1.13v14.72c0,.44-.15.82-.46,1.13-.31.31-.69.47-1.13.47h-10c-.44,0-.82-.16-1.13-.47s-.46-.69-.46-1.13v-45.54c0-.44.15-.82.46-1.13.31-.31.69-.47,1.13-.47h33.83c.44,0,.82.16,1.13.47.31.31.47.69.47,1.14v9.17c0,.45-.16.83-.47,1.14-.31.31-.69.47-1.13.47h-20.64c-.44,0-.82.15-1.13.46-.31.31-.47.68-.47,1.12Z" style="fill: #fff;"/>
          <path d="M121.79,432.56c0-.44.15-.82.46-1.13.31-.31.68-.47,1.13-.47h10c.44,0,.82.16,1.12.47.31.31.46.69.46,1.13v26.97c0,1.73.28,3.16.84,4.29.56,1.13,1.25,2.02,2.07,2.66s1.71,1.1,2.64,1.37c.94.27,1.78.4,2.54.4s1.6-.13,2.54-.4c.94-.27,1.8-.72,2.61-1.37.8-.64,1.48-1.53,2.04-2.66.56-1.13.84-2.56.84-4.29v-26.97c0-.44.15-.82.46-1.13.31-.31.69-.47,1.13-.47h10c.44,0,.82.16,1.13.47.31.31.46.69.46,1.13v26.97c0,3.15-.5,6.02-1.5,8.59-1,2.58-2.43,4.77-4.29,6.59-1.86,1.82-4.1,3.23-6.71,4.23s-5.52,1.5-8.71,1.5-6.09-.5-8.71-1.5-4.85-2.41-6.71-4.23c-1.86-1.82-3.3-4.02-4.32-6.59-1.02-2.57-1.53-5.44-1.53-8.59v-26.97Z" style="fill: #fff;"/>
          <path d="M204.23,443.15h-9.32c-.45,0-.82.16-1.13.47s-.47.69-.47,1.13v33.29c0,.44-.14.82-.43,1.13-.29.31-.68.47-1.17.47h-9.99c-.44,0-.82-.16-1.13-.47s-.47-.69-.47-1.13v-33.29c0-.44-.14-.82-.43-1.13-.29-.31-.68-.47-1.17-.47h-9.46c-.44,0-.82-.16-1.13-.47-.31-.31-.46-.69-.46-1.13v-9.06c0-.44.15-.82.46-1.13.31-.31.69-.47,1.13-.47h35.16c.49,0,.88.16,1.17.47.29.31.43.69.43,1.13v9.06c0,.44-.14.82-.43,1.13-.29.31-.68.47-1.17.47Z" style="fill: #fff;"/>
          <path d="M208.95,432.56c0-.44.15-.82.46-1.13.31-.31.68-.47,1.13-.47h10c.44,0,.82.16,1.12.47.31.31.46.69.46,1.13v26.97c0,1.73.28,3.16.84,4.29.56,1.13,1.25,2.02,2.07,2.66s1.71,1.1,2.64,1.37c.94.27,1.78.4,2.54.4s1.6-.13,2.54-.4c.94-.27,1.8-.72,2.61-1.37.8-.64,1.48-1.53,2.04-2.66.56-1.13.84-2.56.84-4.29v-26.97c0-.44.15-.82.46-1.13.31-.31.69-.47,1.13-.47h10c.44,0,.82.16,1.13.47.31.31.46.69.46,1.13v26.97c0,3.15-.5,6.02-1.5,8.59-1,2.58-2.43,4.77-4.29,6.59-1.86,1.82-4.1,3.23-6.71,4.23s-5.52,1.5-8.71,1.5-6.09-.5-8.71-1.5-4.85-2.41-6.71-4.23c-1.86-1.82-3.3-4.02-4.32-6.59-1.02-2.57-1.53-5.44-1.53-8.59v-26.97Z" style="fill: #fff;"/>
          <path d="M271.07,479.63h-9.97c-.45,0-.83-.16-1.14-.47s-.47-.69-.47-1.13v-45.54c0-.44.16-.82.47-1.13.31-.31.69-.47,1.13-.47h20.71c2.57,0,4.95.43,7.12,1.3,2.17.87,4.03,2.08,5.56,3.63,1.53,1.55,2.73,3.4,3.6,5.53.87,2.13,1.3,4.48,1.3,7.06,0,1.42-.17,2.83-.5,4.23-.33,1.4-.81,2.72-1.43,3.96-.62,1.24-1.35,2.36-2.2,3.36s-1.8,1.83-2.86,2.5c-.36.27-.59.59-.7.96-.11.38-.03.74.23,1.1,1.69,2.22,3.46,4.51,5.33,6.86,1.87,2.35,3.53,4.51,4.99,6.46.27.36.33.74.2,1.17-.13.42-.42.63-.87.63h-12.38c-.44,0-.92-.12-1.43-.37-.51-.24-.9-.54-1.16-.9-1.41-1.87-2.82-3.75-4.21-5.66-1.39-1.91-2.77-3.84-4.14-5.79-.27-.35-.64-.65-1.13-.9-.48-.24-.95-.37-1.39-.37h-1.46c-.44,0-.82.16-1.13.47-.31.31-.46.69-.46,1.13v10.79c0,.44-.16.82-.47,1.13s-.69.47-1.14.47ZM274.26,453.4h7.02c.53,0,1.08-.1,1.66-.3.57-.2,1.1-.51,1.59-.93.49-.42.88-.94,1.19-1.56.31-.62.46-1.35.46-2.2,0-.44-.08-.97-.23-1.56-.15-.6-.42-1.18-.79-1.73-.38-.55-.88-1.02-1.52-1.4-.64-.38-1.42-.57-2.35-.57h-7.02c-.44,0-.82.16-1.12.47-.31.31-.46.69-.46,1.13v7.06c0,.44.15.82.46,1.13.31.31.68.47,1.12.47Z" style="fill: #fff;"/>
          <path d="M318.49,444.74v2.8c0,.44.15.82.46,1.13s.69.47,1.13.47h18.04c.44,0,.82.16,1.13.47.31.31.47.69.47,1.13v9.19c0,.44-.16.82-.47,1.13s-.69.47-1.13.47h-18.04c-.45,0-.82.16-1.13.47-.31.31-.46.69-.46,1.13v2.53c0,.44.15.82.46,1.13s.69.47,1.13.47h20.71c.44,0,.82.16,1.13.47.31.31.47.69.47,1.13v9.19c0,.44-.16.82-.47,1.13s-.69.47-1.13.47h-33.89c-.45,0-.82-.16-1.13-.47s-.46-.69-.46-1.13v-45.54c0-.44.15-.82.46-1.13.31-.31.69-.47,1.13-.47h33.89c.44,0,.82.16,1.13.47.31.31.47.69.47,1.13v9.06c0,.44-.16.82-.47,1.13-.31.31-.69.47-1.13.47h-20.71c-.45,0-.82.16-1.13.47s-.46.69-.46,1.13Z" style="fill: #fff;"/>
          <path d="M367.49,455.26c0-3.46.67-6.73,2-9.79s3.13-5.74,5.39-8.02c2.27-2.29,4.93-4.09,7.99-5.43,3.06-1.33,6.33-2,9.79-2s6.72.67,9.79,2c3.06,1.33,5.74,3.14,8.02,5.43,2.29,2.29,4.1,4.96,5.43,8.02s2,6.33,2,9.79-.67,6.72-2,9.79c-1.33,3.06-3.14,5.74-5.43,8.02-2.29,2.29-4.96,4.09-8.02,5.43-3.06,1.33-6.32,2-9.79,2s-6.72-.67-9.79-2c-3.06-1.33-5.72-3.14-7.99-5.43-2.26-2.29-4.06-4.96-5.39-8.02-1.33-3.06-2-6.33-2-9.79ZM380.67,455.26c0,1.69.31,3.29.93,4.79.62,1.51,1.47,2.84,2.56,4,1.09,1.16,2.36,2.08,3.83,2.76,1.46.69,3.02,1.03,4.66,1.03s3.2-.34,4.66-1.03c1.46-.69,2.75-1.61,3.86-2.76,1.11-1.15,1.97-2.49,2.6-4,.62-1.51.93-3.11.93-4.79s-.31-3.23-.93-4.76-1.49-2.86-2.6-4c-1.11-1.13-2.4-2.04-3.86-2.73-1.46-.69-3.02-1.03-4.66-1.03s-3.2.34-4.66,1.03c-1.46.69-2.74,1.6-3.83,2.73s-1.94,2.46-2.56,4c-.62,1.53-.93,3.12-.93,4.76Z" style="fill: #fff;"/>
          <path d="M435.87,444.86v2.77c0,.44.15.81.46,1.12.31.31.69.46,1.13.46h17.98c.44,0,.82.16,1.13.47s.47.69.47,1.13v9.32c0,.44-.16.82-.47,1.13-.31.31-.69.47-1.13.47h-17.98c-.45,0-.82.16-1.13.47-.31.31-.46.69-.46,1.13v14.72c0,.44-.16.82-.46,1.13s-.68.47-1.12.47h-10c-.44,0-.82-.16-1.13-.47-.31-.31-.46-.69-.46-1.13v-45.54c0-.44.15-.82.46-1.13.31-.31.68-.47,1.13-.47h33.83c.44,0,.82.16,1.13.47.31.31.47.69.47,1.14v9.17c0,.45-.16.83-.47,1.14-.31.31-.69.47-1.13.47h-20.64c-.45,0-.82.15-1.13.46-.31.31-.46.68-.46,1.12Z" style="fill: #fff;"/>
          <path d="M532.02,466.72c-1.29,2.08-2.71,3.97-4.26,5.67-1.55,1.7-3.3,3.15-5.23,4.34-1.93,1.19-4.07,2.12-6.42,2.78-2.35.66-4.95.99-7.79.99-3.55,0-6.88-.67-9.99-2s-5.83-3.13-8.16-5.39-4.16-4.93-5.49-7.99-2-6.33-2-9.79.66-6.72,2-9.79c1.33-3.06,3.16-5.73,5.49-7.99s5.05-4.06,8.16-5.39c3.11-1.33,6.44-2,9.99-2,2.93,0,5.57.33,7.92,1,2.35.67,4.48,1.6,6.39,2.8,1.91,1.2,3.63,2.65,5.16,4.36,1.53,1.71,2.94,3.59,4.23,5.63.22.36.27.73.13,1.13-.13.4-.4.69-.8.87l-9.46,3.73c-.45.18-.89.18-1.33,0-.45-.18-.78-.44-1-.8-1.29-2.04-2.84-3.61-4.66-4.69-1.82-1.09-4.02-1.63-6.59-1.63-1.69,0-3.28.36-4.76,1.07s-2.79,1.66-3.89,2.84-1.98,2.55-2.6,4.11c-.62,1.56-.93,3.16-.93,4.81s.31,3.3.93,4.84c.62,1.54,1.49,2.88,2.6,4.04s2.41,2.09,3.89,2.8c1.49.71,3.07,1.07,4.76,1.07,2.44,0,4.65-.59,6.62-1.76,1.97-1.17,3.54-2.7,4.69-4.56.22-.35.54-.62.97-.8.42-.18.85-.18,1.3,0l9.46,3.73c.4.18.66.46.8.83.13.38.09.77-.13,1.17Z" style="fill: #fff;"/>
          <path d="M547.15,479.63h-10.01c-.48,0-.87-.16-1.16-.47s-.43-.69-.43-1.13v-45.48c0-.44.14-.82.43-1.13.29-.31.67-.47,1.16-.47h10.01c.44,0,.82.16,1.12.47.31.31.46.69.46,1.13v45.48c0,.44-.16.82-.46,1.13s-.69.47-1.12.47Z" style="fill: #fff;"/>
          <path d="M588.22,443.15h-9.32c-.44,0-.82.16-1.13.47-.31.31-.47.69-.47,1.13v33.29c0,.44-.14.82-.43,1.13s-.68.47-1.16.47h-9.99c-.45,0-.82-.16-1.13-.47s-.46-.69-.46-1.13v-33.29c0-.44-.14-.82-.43-1.13s-.68-.47-1.16-.47h-9.46c-.45,0-.82-.16-1.13-.47-.31-.31-.47-.69-.47-1.13v-9.06c0-.44.16-.82.47-1.13.31-.31.69-.47,1.13-.47h35.16c.49,0,.88.16,1.17.47.29.31.43.69.43,1.13v9.06c0,.44-.14.82-.43,1.13-.29.31-.68.47-1.17.47Z" style="fill: #fff;"/>
          <path d="M605.07,479.63h-10c-.49,0-.87-.16-1.16-.47s-.43-.69-.43-1.13v-45.48c0-.44.14-.82.43-1.13.29-.31.67-.47,1.16-.47h10c.44,0,.82.16,1.12.47.31.31.46.69.46,1.13v45.48c0,.44-.15.82-.46,1.13-.31.31-.68.47-1.12.47Z" style="fill: #fff;"/>
          <path d="M626.7,444.74v2.8c0,.44.16.82.47,1.13s.69.47,1.13.47h18.04c.44,0,.82.16,1.13.47.31.31.46.69.46,1.13v9.19c0,.44-.15.82-.46,1.13s-.69.47-1.13.47h-18.04c-.44,0-.82.16-1.13.47-.31.31-.47.69-.47,1.13v2.53c0,.44.16.82.47,1.13s.69.47,1.13.47h20.71c.44,0,.82.16,1.13.47.31.31.47.69.47,1.13v9.19c0,.44-.16.82-.47,1.13s-.69.47-1.13.47h-33.89c-.44,0-.82-.16-1.13-.47-.31-.31-.47-.69-.47-1.13v-45.54c0-.44.15-.82.47-1.13.31-.31.69-.47,1.13-.47h33.89c.44,0,.82.16,1.13.47.31.31.47.69.47,1.13v9.06c0,.44-.16.82-.47,1.13-.31.31-.69.47-1.13.47h-20.71c-.44,0-.82.16-1.13.47s-.47.69-.47,1.13Z" style="fill: #fff;"/>
          <path d="M662.59,462.92c2.4,1.55,4.77,2.77,7.12,3.66,2.35.89,4.55,1.33,6.59,1.33s3.44-.28,4.46-.83c1.02-.55,1.53-1.39,1.53-2.5,0-.58-.22-1.03-.67-1.37s-1.03-.61-1.76-.83c-.73-.22-1.59-.4-2.56-.53s-1.98-.31-3-.53c-.98-.18-2.12-.39-3.43-.63-1.31-.24-2.65-.6-4.03-1.07-1.38-.47-2.74-1.05-4.1-1.76-1.36-.71-2.56-1.62-3.63-2.73s-1.92-2.43-2.56-3.96c-.64-1.53-.97-3.34-.97-5.43,0-3.06.6-5.59,1.8-7.59,1.2-2,2.72-3.58,4.56-4.76,1.84-1.18,3.89-2,6.16-2.46,2.27-.47,4.46-.7,6.59-.7,3.73,0,7.07.54,10.02,1.63,2.95,1.09,5.78,2.67,8.49,4.76.36.31.55.69.6,1.13.04.44-.07.84-.33,1.2l-5.19,7.39c-.27.36-.62.58-1.06.67-.45.09-.84,0-1.2-.27-2.26-1.42-4.37-2.43-6.33-3.03-1.95-.6-3.75-.9-5.39-.9-.49,0-1.05.01-1.7.03-.64.02-1.26.11-1.83.27-.58.16-1.05.41-1.43.77s-.57.84-.57,1.46.47,1.18,1.4,1.66c.93.49,2,.91,3.2,1.27,1.2.36,2.35.63,3.46.83s1.82.32,2.13.37c1.6.31,3.35.77,5.26,1.37,1.91.6,3.7,1.49,5.36,2.66,1.66,1.18,3.06,2.71,4.2,4.59,1.13,1.89,1.7,4.25,1.7,7.09,0,2.66-.47,4.96-1.4,6.89-.93,1.93-2.23,3.52-3.89,4.76-1.67,1.24-3.66,2.16-5.99,2.76-2.33.6-4.92.9-7.76.9-2.31,0-4.46-.19-6.46-.57-2-.38-3.86-.9-5.59-1.56-1.73-.67-3.34-1.45-4.83-2.36-1.49-.91-2.85-1.88-4.1-2.9-.36-.27-.55-.63-.6-1.1s.07-.88.33-1.23l5.13-7.39c.27-.35.62-.58,1.06-.67.44-.09.84-.02,1.2.2Z" style="fill: #fff;"/>
        </g>
        <g>
          <g>
            <path d="M377.04,291.27c3.77,1.77,7.77,2.66,12,2.66s8.23-.88,12-2.66c3.77-1.77,7.08-4.14,9.94-7.11,2.86-2.97,5.08-6.4,6.69-10.29,1.6-3.88,2.4-8,2.4-12.34s-.8-8.31-2.4-12.26c-1.6-3.94-3.83-7.37-6.69-10.29-2.86-2.91-6.17-5.26-9.94-7.03-3.77-1.77-7.77-2.66-12-2.66s-8.23.89-12,2.66c-3.77,1.77-7.06,4.11-9.86,7.03-2.8,2.91-5,6.34-6.6,10.29-1.6,3.94-2.4,8.03-2.4,12.26s.8,8.46,2.4,12.34c1.6,3.89,3.8,7.32,6.6,10.29,2.8,2.97,6.09,5.34,9.86,7.11Z" style="fill: #fff; mix-blend-mode: lighten; opacity: .5;"/>
            <path d="M381.68,131.14c-37.3,19.57-58.3,75.25-57.4,128.95.18-8.38,1.86-16.31,5.11-23.77,3.43-7.89,8.06-14.77,13.89-20.66,5.83-5.88,12.69-10.54,20.57-13.97,7.89-3.43,16.29-5.14,25.2-5.14s17.31,1.71,25.2,5.14c7.89,3.43,14.77,8.09,20.66,13.97.8.8,1.56,1.61,2.31,2.45.72-.77,1.45-1.52,2.21-2.25,6-5.83,13-10.46,21-13.89,8-3.43,16.57-5.14,25.71-5.14,7.54,0,14.34.86,20.4,2.57,6.06,1.71,11.54,4.11,16.46,7.2,4.91,3.09,9.34,6.83,13.29,11.23,3.94,4.4,7.57,9.23,10.89,14.49.57.92.69,1.89.34,2.91s-1.03,1.77-2.06,2.23l-24.34,9.6c-1.14.46-2.29.46-3.43,0-1.14-.46-2-1.14-2.57-2.06-3.32-5.26-7.32-9.28-12-12.09-4.69-2.8-10.34-4.2-16.97-4.2-4.34,0-8.43.92-12.26,2.75-3.83,1.83-7.17,4.27-10.03,7.3-2.86,3.04-5.09,6.56-6.69,10.57-1.6,4.01-2.4,8.14-2.4,12.38s.8,8.51,2.4,12.46c1.6,3.95,3.83,7.42,6.69,10.4,2.86,2.98,6.2,5.39,10.03,7.22,3.83,1.83,7.91,2.75,12.26,2.75,6.28,0,11.97-1.51,17.06-4.54,5.08-3.03,9.11-6.94,12.09-11.74.57-.91,1.4-1.6,2.49-2.06,1.08-.46,2.2-.46,3.34,0l24.34,9.6c1.03.46,1.71,1.17,2.06,2.14.34.97.23,1.97-.34,3-3.32,5.36-6.97,10.22-10.97,14.6-4,4.38-8.49,8.1-13.46,11.17-4.97,3.07-10.49,5.46-16.54,7.16-6.06,1.7-12.74,2.56-20.06,2.56-9.14,0-17.72-1.71-25.71-5.14-8-3.43-15-8.06-21-13.89-.79-.77-1.55-1.56-2.3-2.36-.72.8-1.46,1.58-2.22,2.34-5.89,5.89-12.77,10.54-20.66,13.97-7.89,3.43-16.29,5.14-25.2,5.14s-17.31-1.71-25.2-5.14c-7.89-3.43-14.74-8.08-20.57-13.97-5.83-5.88-10.46-12.77-13.89-20.66-2.54-5.84-4.13-11.96-4.79-18.36,2.33,39.22,16.62,76.31,45.12,96.19,70.58,49.21,216.83-20.8,216.83-101.72,0-76.57-132.18-169.83-204.87-131.7Z" style="fill: #fff; mix-blend-mode: lighten; opacity: .6;"/>
          </g>
          <g>
            <path d="M363.84,321.36c-7.89-3.43-14.74-8.08-20.57-13.97-5.83-5.88-10.46-12.77-13.89-20.66-3.43-7.89-5.14-16.29-5.14-25.2s1.71-17.31,5.14-25.2c3.43-7.89,8.06-14.77,13.89-20.66,5.83-5.88,12.69-10.54,20.57-13.97,7.89-3.43,16.29-5.14,25.2-5.14s17.31,1.71,25.2,5.14c7.89,3.43,14.77,8.09,20.66,13.97.8.8,1.56,1.61,2.31,2.45.72-.77,1.45-1.52,2.21-2.25,6-5.83,13-10.46,21-13.89,8-3.43,16.57-5.14,25.71-5.14,4.02,0,7.82.25,11.42.74,6.89-32.3,3.93-63.3-12.97-84.53-43.55-54.72-187.04-40.47-217.78,33.52-6.67,16.05-7.59,34.02-4.22,52.22h52.62c1.14,0,2.11.4,2.91,1.21.8.8,1.2,1.78,1.2,2.93v23.61c0,1.15-.4,2.13-1.2,2.93-.8.8-1.77,1.21-2.91,1.21h-42.59c2.27,5.16,4.83,10.26,7.63,15.26h28.11c1.14,0,2.11.4,2.91,1.2.8.8,1.2,1.77,1.2,2.91v24c0,1.14-.4,2.12-1.2,2.91-.8.8-1.77,1.2-2.91,1.2h-5.34c6.62,7.59,13.76,14.59,21.24,20.75,17.14,14.13,36.02,23.93,54.34,26.75-5.1-.82-10.01-2.25-14.74-4.3Z" style="fill: #fff; mix-blend-mode: lighten; opacity: .6;"/>
            <path d="M401.04,231.96c-3.77-1.77-7.77-2.66-12-2.66s-8.23.89-12,2.66c-3.77,1.77-7.06,4.11-9.86,7.03-2.8,2.91-5,6.34-6.6,10.29-1.6,3.94-2.4,8.03-2.4,12.26s.8,8.46,2.4,12.34c1.6,3.89,3.8,7.32,6.6,10.29,2.8,2.97,6.09,5.34,9.86,7.11,3.77,1.77,7.77,2.66,12,2.66s8.23-.88,12-2.66c3.77-1.77,7.08-4.14,9.94-7.11,2.86-2.97,5.08-6.4,6.69-10.29,1.6-3.88,2.4-8,2.4-12.34s-.8-8.31-2.4-12.26c-1.6-3.94-3.83-7.37-6.69-10.29-2.86-2.91-6.17-5.26-9.94-7.03Z" style="fill: #fff; mix-blend-mode: lighten; opacity: .5;"/>
            <path d="M486.14,228.72c-4.34,0-8.43.92-12.26,2.75-3.83,1.83-7.17,4.27-10.03,7.3-2.86,3.04-5.09,6.56-6.69,10.57-1.6,4.01-2.4,8.14-2.4,12.38s.8,8.51,2.4,12.46c.75,1.84,1.63,3.58,2.65,5.21,11.53-15.51,21.16-32.85,28.2-50.62-.62-.03-1.24-.05-1.88-.05Z" style="fill: #fff; mix-blend-mode: lighten; opacity: .5;"/>
            <polygon points="437.12 305.05 437.12 305.05 437.12 305.05 437.12 305.05" style="fill: #fff; mix-blend-mode: lighten; opacity: .5;"/>
            <path d="M386.68,326.44c.55.02,1.09.03,1.64.04-.55,0-1.09-.02-1.64-.04Z" style="fill: #fff; mix-blend-mode: lighten; opacity: .5;"/>
            <path d="M414.24,321.36c-6.77,2.94-13.92,4.61-21.44,5.03.27-.02.54-.02.81-.04,10.78-.75,18.92-2.82,28.17-8.84-2.41,1.42-4.91,2.71-7.54,3.85Z" style="fill: #fff; mix-blend-mode: lighten; opacity: .5;"/>
            <path d="M389.22,326.5c.94,0,1.88-.03,2.82-.07-.93.04-1.87.07-2.82.07Z" style="fill: #fff; mix-blend-mode: lighten; opacity: .5;"/>
          </g>
          <g>
            <path d="M414.24,321.36c-7.89,3.43-16.29,5.14-25.2,5.14s-17.31-1.71-25.2-5.14c-7.89-3.43-14.74-8.08-20.57-13.97-5.83-5.88-10.46-12.77-13.89-20.66-3.43-7.89-5.14-16.29-5.14-25.2s1.71-17.31,5.14-25.2c3.43-7.89,8.06-14.77,13.89-20.66,5.83-5.88,12.69-10.54,20.57-13.97,7.89-3.43,16.29-5.14,25.2-5.14s17.31,1.71,25.2,5.14c7.89,3.43,14.77,8.09,20.66,13.97.8.8,1.56,1.61,2.31,2.45.02-.02.03-.03.05-.05-35.24-62.69-132.91-117.75-191.67-86.92-66.62,34.95-81.26,185.09-11.96,233.41,56.44,39.36,150-5.98,200.14-56.09-5.64,5.37-12.13,9.68-19.52,12.89ZM319.31,226.54c0,1.15-.4,2.13-1.2,2.93-.8.8-1.77,1.21-2.91,1.21h-53.14c-1.14,0-2.12.4-2.91,1.19-.8.79-1.2,1.75-1.2,2.88v7.12c0,1.13.4,2.09,1.2,2.88.8.79,1.77,1.19,2.91,1.19h46.29c1.14,0,2.11.4,2.91,1.2.8.8,1.2,1.77,1.2,2.91v24c0,1.14-.4,2.12-1.2,2.91-.8.8-1.77,1.2-2.91,1.2h-46.29c-1.14,0-2.12.4-2.91,1.2-.8.8-1.2,1.77-1.2,2.91v37.89c0,1.14-.4,2.12-1.19,2.91-.8.8-1.76,1.2-2.9,1.2h-25.76c-1.14,0-2.11-.4-2.9-1.2-.8-.8-1.19-1.77-1.19-2.91v-117.26c0-1.14.4-2.11,1.19-2.91.8-.8,1.76-1.2,2.9-1.2h87.11c1.14,0,2.11.4,2.91,1.21.8.8,1.2,1.78,1.2,2.93v23.61Z" style="fill: #fff; mix-blend-mode: lighten; opacity: .6;"/>
            <path d="M401.04,231.96c-3.77-1.77-7.77-2.66-12-2.66s-8.23.89-12,2.66c-3.77,1.77-7.06,4.11-9.86,7.03-2.8,2.91-5,6.34-6.6,10.29-1.6,3.94-2.4,8.03-2.4,12.26s.8,8.46,2.4,12.34c1.6,3.89,3.8,7.32,6.6,10.29,2.8,2.97,6.09,5.34,9.86,7.11,3.77,1.77,7.77,2.66,12,2.66s8.23-.88,12-2.66c3.77-1.77,7.08-4.14,9.94-7.11,2.86-2.97,5.08-6.4,6.69-10.29,1.6-3.88,2.4-8,2.4-12.34s-.8-8.31-2.4-12.26c-1.6-3.94-3.83-7.37-6.69-10.29-2.86-2.91-6.17-5.26-9.94-7.03Z" style="fill: #fff; mix-blend-mode: lighten; opacity: .5;"/>
          </g>
        </g>
      </g>
    </g>
  </g>
</svg>